<svg width="210" height="36" viewBox="0 0 210 36" fill="none" xmlns="http://www.w3.org/2000/svg">
<path d="M18.5711 4.78893C17.5527 4.03107 16.2726 3.80624 15.0568 4.17088L6.83311 6.63794C5.13894 7.14651 4 8.67604 4 10.4455V28.0224C4 29.2916 4.58389 30.4539 5.60214 31.2105C6.62059 31.9685 7.90214 32.1932 9.11648 31.8286L15.2555 29.9864C15.0635 29.3533 14.9663 28.6926 14.9663 28.0224V20.0399C14.9663 18.3637 15.5776 16.7627 16.6905 15.5347C17.5073 14.63 18.567 13.9626 19.7512 13.6062L20.1733 13.4856V7.97838C20.1733 6.70915 19.5894 5.54688 18.571 4.78893H18.5711Z" fill="#6C5DD3"/>
<path d="M33.8794 17.5727V25.5552C33.8794 27.3233 32.7418 28.8543 31.0463 29.3614L22.8226 31.8286C22.4416 31.9437 22.0538 31.9999 21.67 31.9999C20.8297 31.9999 20.0074 31.7313 19.3083 31.2104C18.9889 30.972 18.7121 30.6965 18.4845 30.3881C18.2077 30.018 18.0007 29.6055 17.8705 29.1627C17.8691 29.1627 17.8678 29.1627 17.8664 29.164L17.8691 29.1613C17.7636 28.7981 17.7061 28.4157 17.7061 28.0223V20.0399C17.7061 19.2202 17.95 18.4513 18.3805 17.8126C18.8108 17.1738 19.4276 16.664 20.1732 16.3611C20.2925 16.3131 20.4145 16.2691 20.5393 16.2323L21.5453 15.9307L28.7631 13.7651C29.9787 13.4005 31.259 13.6253 32.2773 14.3833C33.2957 15.1412 33.8795 16.3035 33.8795 17.5727H33.8794Z" fill="#6C5DD3"/>
<path d="M49.1759 26.336C50.9759 26.336 52.4399 25.88 53.5679 24.968C54.6959 24.056 55.2719 22.832 55.2719 21.272C55.2719 20.312 55.0079 19.472 54.6479 18.896C54.3359 18.32 53.5679 17.72 53.0639 17.408C52.8239 17.24 52.4639 17.072 52.0079 16.904C51.5519 16.712 51.1919 16.568 50.9279 16.496L49.7759 16.112C48.5279 15.728 47.6879 15.368 47.2319 15.056C46.7999 14.72 46.5839 14.288 46.5839 13.76C46.5839 12.776 47.4239 12.08 48.7919 12.08C50.2559 12.08 51.3359 12.8 52.0079 14.24L54.7919 12.632C53.6399 10.256 51.5039 8.864 48.7919 8.864C47.2799 8.864 45.9599 9.32 44.8799 10.232C43.7999 11.12 43.2719 12.344 43.2719 13.856C43.2719 15.392 43.8239 16.544 44.8559 17.312C45.9119 18.056 46.8239 18.416 48.3359 18.872C49.7039 19.256 50.6399 19.616 51.1679 19.952C51.6959 20.264 51.9599 20.72 51.9599 21.32C51.9599 22.352 51.1199 23.096 49.2719 23.096C47.3519 23.096 46.0559 22.232 45.4079 20.528L42.5759 22.184C43.5119 24.752 45.8399 26.336 49.1759 26.336ZM69.2802 21.272C69.3522 20.816 69.4002 20.408 69.4002 20C69.4002 18.2 68.8242 16.712 67.6722 15.488C66.5442 14.264 65.0802 13.664 63.3282 13.664C61.4802 13.664 59.9442 14.264 58.7682 15.488C57.5922 16.688 56.9922 18.2 56.9922 20C56.9922 21.824 57.5922 23.336 58.7922 24.536C59.9922 25.736 61.5762 26.336 63.5682 26.336C65.8722 26.336 67.6242 25.472 68.8002 23.768L66.3042 22.328C65.7042 23.12 64.7922 23.528 63.6162 23.528C61.7682 23.528 60.6402 22.784 60.2322 21.272H69.2802ZM60.1842 18.872C60.5442 17.336 61.6722 16.448 63.3282 16.448C64.7442 16.448 65.9442 17.24 66.3042 18.872H60.1842ZM83.1318 21.272C83.2038 20.816 83.2518 20.408 83.2518 20C83.2518 18.2 82.6758 16.712 81.5238 15.488C80.3958 14.264 78.9318 13.664 77.1798 13.664C75.3318 13.664 73.7958 14.264 72.6198 15.488C71.4438 16.688 70.8438 18.2 70.8438 20C70.8438 21.824 71.4438 23.336 72.6438 24.536C73.8438 25.736 75.4278 26.336 77.4198 26.336C79.7238 26.336 81.4758 25.472 82.6518 23.768L80.1558 22.328C79.5558 23.12 78.6438 23.528 77.4678 23.528C75.6198 23.528 74.4918 22.784 74.0838 21.272H83.1318ZM74.0358 18.872C74.3958 17.336 75.5238 16.448 77.1798 16.448C78.5958 16.448 79.7958 17.24 80.1558 18.872H74.0358ZM94.4153 15.416C93.5033 14.24 92.2073 13.664 90.5273 13.664C88.9193 13.664 87.5273 14.288 86.3753 15.512C85.2473 16.736 84.6713 18.224 84.6713 20C84.6713 21.776 85.2473 23.288 86.3753 24.512C87.5273 25.736 88.9193 26.336 90.5273 26.336C92.2073 26.336 93.5033 25.76 94.4153 24.584V26H97.5113V9.2H94.4153V15.416ZM88.7033 22.448C88.0793 21.8 87.7673 20.984 87.7673 20C87.7673 19.016 88.0793 18.2 88.7033 17.576C89.3513 16.928 90.1433 16.616 91.1033 16.616C92.0633 16.616 92.8553 16.928 93.4793 17.576C94.1033 18.2 94.4153 19.016 94.4153 20C94.4153 20.984 94.1033 21.8 93.4793 22.448C92.8553 23.072 92.0633 23.384 91.1033 23.384C90.1433 23.384 89.3513 23.072 88.7033 22.448ZM112.007 21.272C112.079 20.816 112.127 20.408 112.127 20C112.127 18.2 111.551 16.712 110.399 15.488C109.271 14.264 107.807 13.664 106.055 13.664C104.207 13.664 102.671 14.264 101.495 15.488C100.319 16.688 99.7188 18.2 99.7188 20C99.7188 21.824 100.319 23.336 101.519 24.536C102.719 25.736 104.303 26.336 106.295 26.336C108.599 26.336 110.351 25.472 111.527 23.768L109.031 22.328C108.431 23.12 107.519 23.528 106.343 23.528C104.495 23.528 103.367 22.784 102.959 21.272H112.007ZM102.911 18.872C103.271 17.336 104.399 16.448 106.055 16.448C107.471 16.448 108.671 17.24 109.031 18.872H102.911ZM117.384 14H114.288V26H117.384V20.264C117.384 19.112 117.744 18.296 118.488 17.792C119.232 17.288 120.096 17.096 121.032 17.216V13.76C119.4 13.76 117.96 14.528 117.384 16.064V14Z" fill="#E8E7F0"/>
</svg>
